<?xml version="1.0" standalone="no"?>
<!DOCTYPE svg PUBLIC "-//W3C//DTD SVG 20010904//EN"
 "http://www.w3.org/TR/2001/REC-SVG-20010904/DTD/svg10.dtd">
<svg version="1.0" xmlns="http://www.w3.org/2000/svg"
 width="1280.000000pt" height="1267.000000pt" viewBox="0 0 1280.000000 1267.000000"
 preserveAspectRatio="xMidYMid meet">
<metadata>
Created by potrace 1.15, written by Peter Selinger 2001-2017
</metadata>
<g transform="translate(0.000000,1267.000000) scale(0.100000,-0.100000)"
fill="#000000" stroke="none">
<path d="M5825 12656 c-103 -33 -236 -126 -346 -242 -133 -141 -310 -388 -463
-646 -32 -54 -62 -98 -67 -98 -4 0 -66 37 -136 83 -654 425 -1347 637 -2085
637 l-158 0 5 -22 c3 -13 30 -248 62 -523 76 -675 77 -799 7 -1150 -101 -503
-399 -1305 -722 -1945 -140 -278 -448 -928 -700 -1475 -683 -1485 -1101 -2541
-1208 -3048 l-14 -68 65 -127 c378 -743 854 -1112 1491 -1157 143 -10 320 23
454 83 l45 21 10 -53 c20 -99 127 -252 241 -344 164 -131 377 -195 649 -196
138 -1 141 0 208 31 93 44 137 81 208 174 85 111 261 383 444 684 87 143 189
304 227 358 344 485 848 943 1413 1284 209 126 679 362 693 349 7 -8 -16 -176
-43 -311 -47 -234 -118 -443 -218 -639 -97 -192 -188 -323 -810 -1170 -198
-270 -407 -560 -464 -644 -455 -676 -739 -1391 -842 -2117 -16 -112 -41 -341
-41 -378 0 -4 2022 -6 4493 -5 l4492 3 17 185 c43 473 68 1071 68 1600 -1
2586 -492 4679 -1478 6305 -350 577 -844 1195 -1330 1665 -744 720 -1482 1115
-2242 1201 -159 18 -425 14 -549 -9 -70 -12 -104 -15 -107 -8 -2 6 -58 173
-124 371 -174 522 -265 692 -500 938 -150 157 -304 277 -488 381 -68 38 -94
42 -157 22z"/>
</g>
</svg>
