<?xml version="1.0" encoding="UTF-8" standalone="no" ?>
<!DOCTYPE svg PUBLIC "-//W3C//DTD SVG 1.1//EN" "http://www.w3.org/Graphics/SVG/1.1/DTD/svg11.dtd">
<svg xmlns="http://www.w3.org/2000/svg" xmlns:xlink="http://www.w3.org/1999/xlink" version="1.1" width="1080" height="1080" viewBox="0 0 1080 1080" xml:space="preserve">
<desc>Created with Fabric.js 5.2.4</desc>
<defs>
</defs>
<g transform="matrix(1 0 0 1 540 540)" id="2d221079-c948-4427-8442-3c6900d5e7ed"  >
<rect style="stroke: none; stroke-width: 1; stroke-dasharray: none; stroke-linecap: butt; stroke-dashoffset: 0; stroke-linejoin: miter; stroke-miterlimit: 4; fill: rgb(255,255,255); fill-rule: nonzero; opacity: 1;" vector-effect="non-scaling-stroke"  x="-540" y="-540" rx="0" ry="0" width="1080" height="1080" />
</g>
<g transform="matrix(1 0 0 1 540 540)" id="0ed4f74d-30a1-458f-9a10-9cef579497c8"  >
</g>
<g transform="matrix(1 0 0 1 540 540)" id="6ba6a878-ced2-49f3-9486-aeb30e91a179"  >
<path style="stroke: rgb(0,0,0); stroke-width: 0; stroke-dasharray: none; stroke-linecap: butt; stroke-dashoffset: 0; stroke-linejoin: miter; stroke-miterlimit: 4; fill: rgb(0,0,0); fill-rule: nonzero; opacity: 1;" vector-effect="non-scaling-stroke"  transform=" translate(-100.78, -14.12)" d="M 18.168 6.424 C 17.3573 5.528 16.3973 4.824 15.288 4.312 C 14.1787 3.8 13.0587 3.544 11.928 3.544 C 10.8187 3.544 9.77333 3.75733 8.792 4.184 C 7.832 4.58933 6.97867 5.16533 6.232 5.912 C 5.50667 6.65867 4.94133 7.53333 4.536 8.536 C 4.13067 9.51733 3.928 10.584 3.928 11.736 C 3.928 12.8667 4.13067 13.9333 4.536 14.936 C 4.94133 15.9173 5.50667 16.7813 6.232 17.528 C 6.97867 18.2747 7.832 18.8613 8.792 19.288 C 9.77333 19.7147 10.8187 19.928 11.928 19.928 C 13.0587 19.928 14.168 19.6933 15.256 19.224 C 16.344 18.7333 17.3147 18.072 18.168 17.24 L 20.408 19.576 C 19.6613 20.3227 18.808 20.9733 17.848 21.528 C 16.9093 22.0827 15.9173 22.5093 14.872 22.808 C 13.848 23.1067 12.8027 23.256 11.736 23.256 C 10.0933 23.256 8.568 22.968 7.16 22.392 C 5.752 21.7947 4.51467 20.9733 3.448 19.928 C 2.40267 18.8827 1.58133 17.6667 0.984 16.28 C 0.386667 14.872 0.0880001 13.368 0.0880001 11.768 C 0.0880001 10.168 0.386667 8.68533 0.984 7.32 C 1.58133 5.93333 2.41333 4.71733 3.48 3.672 C 4.568 2.62667 5.816 1.816 7.224 1.24 C 8.65333 0.664 10.2 0.375999 11.864 0.375999 C 12.9307 0.375999 13.976 0.514666 15 0.792 C 16.024 1.06933 16.9947 1.464 17.912 1.976 C 18.8293 2.488 19.6507 3.10667 20.376 3.832 L 18.168 6.424 Z M 30.8598 5.88 C 32.6091 5.88 34.1451 6.24267 35.4678 6.968 C 36.8118 7.69333 37.8571 8.70667 38.6038 10.008 C 39.3504 11.288 39.7238 12.7813 39.7238 14.488 C 39.7238 16.1947 39.3504 17.6987 38.6038 19 C 37.8571 20.3013 36.8118 21.3147 35.4678 22.04 C 34.1451 22.7653 32.6091 23.128 30.8598 23.128 C 29.1104 23.128 27.5638 22.7653 26.2198 22.04 C 24.8758 21.3147 23.8304 20.3013 23.0838 19 C 22.3371 17.6987 21.9638 16.1947 21.9638 14.488 C 21.9638 12.7813 22.3371 11.288 23.0838 10.008 C 23.8304 8.70667 24.8758 7.69333 26.2198 6.968 C 27.5638 6.24267 29.1104 5.88 30.8598 5.88 Z M 30.8598 8.856 C 29.8358 8.856 28.9291 9.10133 28.1398 9.592 C 27.3504 10.0613 26.7318 10.7227 26.2838 11.576 C 25.8571 12.4293 25.6438 13.4107 25.6438 14.52 C 25.6438 15.6507 25.8571 16.6427 26.2838 17.496 C 26.7318 18.3493 27.3504 19.0213 28.1398 19.512 C 28.9291 19.9813 29.8358 20.216 30.8598 20.216 C 31.8838 20.216 32.7798 19.9813 33.5478 19.512 C 34.3371 19.0213 34.9451 18.3493 35.3718 17.496 C 35.8198 16.6427 36.0438 15.6507 36.0438 14.52 C 36.0438 13.4107 35.8198 12.4293 35.3718 11.576 C 34.9451 10.7227 34.3371 10.0613 33.5478 9.592 C 32.7798 9.10133 31.8838 8.856 30.8598 8.856 Z M 46.6998 15.608 C 46.6998 16.9307 47.0518 17.976 47.7558 18.744 C 48.4598 19.4907 49.4304 19.864 50.6678 19.864 C 52.1398 19.8213 53.2811 19.2773 54.0918 18.232 C 54.9238 17.1867 55.3398 15.896 55.3398 14.36 L 56.3318 14.36 C 56.3318 16.4507 56.0438 18.136 55.4678 19.416 C 54.8918 20.696 54.0704 21.6347 53.0038 22.232 C 51.9584 22.808 50.7104 23.1067 49.2598 23.128 C 47.9584 23.128 46.8384 22.8613 45.8998 22.328 C 44.9824 21.7947 44.2678 21.0373 43.7558 20.056 C 43.2651 19.0747 43.0198 17.912 43.0198 16.568 L 43.0198 6.008 L 46.6998 6.008 L 46.6998 15.608 Z M 55.3398 6.008 L 59.0198 6.008 L 59.0198 23 L 55.3398 23 L 55.3398 6.008 Z M 74.038 9.208 C 72.822 9.144 71.766 9.35733 70.87 9.848 C 69.9953 10.3173 69.3127 10.9787 68.822 11.832 C 68.3527 12.6853 68.118 13.6667 68.118 14.776 L 67.094 14.648 C 67.094 12.7493 67.3713 11.1493 67.926 9.848 C 68.4807 8.54667 69.2807 7.56533 70.326 6.904 C 71.3713 6.22133 72.6087 5.88 74.038 5.88 L 74.038 9.208 Z M 64.47 6.008 L 68.15 6.008 L 68.15 23 L 64.47 23 L 64.47 6.008 Z M 86.7598 10.136 C 86.0131 9.688 85.1918 9.336 84.2958 9.08 C 83.4211 8.80267 82.6104 8.664 81.8638 8.664 C 81.1384 8.664 80.5411 8.80267 80.0718 9.08 C 79.6024 9.35733 79.3678 9.816 79.3678 10.456 C 79.3678 10.9893 79.5811 11.416 80.0078 11.736 C 80.4558 12.0347 81.0211 12.2907 81.7038 12.504 C 82.3864 12.7173 83.1118 12.9413 83.8798 13.176 C 84.6478 13.4107 85.3731 13.72 86.0558 14.104 C 86.7598 14.4667 87.3251 14.968 87.7518 15.608 C 88.1784 16.248 88.3918 17.0907 88.3918 18.136 C 88.3918 19.288 88.0824 20.2373 87.4638 20.984 C 86.8664 21.7093 86.0664 22.2533 85.0638 22.616 C 84.0824 22.9573 83.0158 23.128 81.8638 23.128 C 80.6264 23.128 79.3891 22.9253 78.1518 22.52 C 76.9144 22.1147 75.8691 21.528 75.0158 20.76 L 76.3278 18.264 C 77.0744 18.9253 77.9811 19.448 79.0477 19.832 C 80.1144 20.1947 81.1064 20.376 82.0238 20.376 C 82.5571 20.376 83.0264 20.312 83.4318 20.184 C 83.8584 20.0347 84.1891 19.8213 84.4238 19.544 C 84.6798 19.2667 84.8078 18.904 84.8078 18.456 C 84.8078 17.8587 84.5944 17.3893 84.1678 17.048 C 83.7411 16.7067 83.1864 16.4293 82.5038 16.216 C 81.8211 15.9813 81.0958 15.7573 80.3278 15.544 C 79.5598 15.3093 78.8344 15.0107 78.1518 14.648 C 77.4904 14.2853 76.9464 13.7947 76.5198 13.176 C 76.0931 12.5573 75.8798 11.736 75.8798 10.712 C 75.8798 9.56 76.1784 8.632 76.7758 7.928 C 77.3731 7.20267 78.1411 6.68 79.0798 6.36 C 80.0398 6.01867 81.0638 5.848 82.1518 5.848 C 83.2184 5.848 84.2851 5.99733 85.3518 6.296 C 86.4184 6.59467 87.3358 7.01067 88.1038 7.544 L 86.7598 10.136 Z M 103.871 13.272 C 103.828 12.312 103.604 11.5013 103.199 10.84 C 102.815 10.1573 102.271 9.63467 101.567 9.272 C 100.863 8.888 100.052 8.696 99.135 8.696 C 98.111 8.696 97.215 8.93067 96.447 9.4 C 95.7003 9.86933 95.1137 10.5307 94.687 11.384 C 94.2603 12.216 94.047 13.1973 94.047 14.328 C 94.047 15.544 94.271 16.6 94.719 17.496 C 95.1883 18.392 95.8283 19.0853 96.639 19.576 C 97.471 20.0667 98.4203 20.312 99.487 20.312 C 101.386 20.312 102.986 19.64 104.287 18.296 L 106.239 20.248 C 105.407 21.1653 104.394 21.88 103.199 22.392 C 102.004 22.8827 100.671 23.128 99.199 23.128 C 97.4497 23.128 95.9243 22.7653 94.623 22.04 C 93.3217 21.3147 92.3083 20.312 91.583 19.032 C 90.8577 17.7307 90.495 16.2267 90.495 14.52 C 90.495 12.8133 90.8577 11.32 91.583 10.04 C 92.3083 8.73867 93.3217 7.72533 94.623 7 C 95.9243 6.27467 97.4177 5.90133 99.103 5.88 C 101.108 5.88 102.719 6.296 103.935 7.128 C 105.151 7.93867 106.015 9.09067 106.527 10.584 C 107.039 12.0773 107.22 13.848 107.071 15.896 L 93.471 15.896 L 93.471 13.272 L 103.871 13.272 Z M 124.284 21.816 C 124.988 22.7333 125.702 23.448 126.428 23.96 C 127.174 24.4933 127.932 24.76 128.7 24.76 C 129.297 24.76 129.948 24.5893 130.652 24.248 C 131.377 23.928 132.102 23.4693 132.828 22.872 L 134.332 25.4 C 133.478 26.1893 132.508 26.7973 131.42 27.224 C 130.353 27.6507 129.297 27.864 128.252 27.864 C 126.822 27.864 125.478 27.4373 124.22 26.584 C 122.982 25.7307 121.916 24.536 121.02 23 L 124.284 21.816 Z M 121.148 0.375999 C 122.812 0.375999 124.358 0.664 125.788 1.24 C 127.238 1.816 128.497 2.62667 129.564 3.672 C 130.652 4.71733 131.494 5.93333 132.092 7.32 C 132.71 8.68533 133.02 10.168 133.02 11.768 C 133.02 13.368 132.71 14.872 132.092 16.28 C 131.494 17.6667 130.652 18.8827 129.564 19.928 C 128.497 20.9733 127.238 21.7947 125.788 22.392 C 124.358 22.968 122.812 23.256 121.148 23.256 C 119.484 23.256 117.926 22.968 116.476 22.392 C 115.046 21.7947 113.788 20.9733 112.7 19.928 C 111.633 18.8827 110.79 17.6667 110.172 16.28 C 109.574 14.872 109.276 13.368 109.276 11.768 C 109.276 10.168 109.574 8.67467 110.172 7.288 C 110.79 5.90133 111.633 4.696 112.7 3.672 C 113.788 2.62667 115.046 1.816 116.476 1.24 C 117.926 0.664 119.484 0.375999 121.148 0.375999 Z M 121.18 3.576 C 120.07 3.576 119.025 3.78933 118.044 4.216 C 117.084 4.62133 116.23 5.19733 115.484 5.944 C 114.737 6.69067 114.15 7.56533 113.724 8.568 C 113.318 9.54933 113.116 10.616 113.116 11.768 C 113.116 12.92 113.329 13.9973 113.756 15 C 114.182 16.0027 114.769 16.888 115.516 17.656 C 116.262 18.4027 117.116 18.9893 118.076 19.416 C 119.057 19.8427 120.092 20.056 121.18 20.056 C 122.268 20.056 123.292 19.8427 124.252 19.416 C 125.233 18.9893 126.086 18.4027 126.812 17.656 C 127.537 16.888 128.102 16.0027 128.508 15 C 128.934 13.9973 129.148 12.92 129.148 11.768 C 129.148 10.616 128.934 9.54933 128.508 8.568 C 128.102 7.56533 127.537 6.69067 126.812 5.944 C 126.086 5.19733 125.233 4.62133 124.252 4.216 C 123.292 3.78933 122.268 3.576 121.18 3.576 Z M 140.231 15.608 C 140.231 16.9307 140.583 17.976 141.287 18.744 C 141.991 19.4907 142.962 19.864 144.199 19.864 C 145.671 19.8213 146.812 19.2773 147.623 18.232 C 148.455 17.1867 148.871 15.896 148.871 14.36 L 149.863 14.36 C 149.863 16.4507 149.575 18.136 148.999 19.416 C 148.423 20.696 147.602 21.6347 146.535 22.232 C 145.49 22.808 144.242 23.1067 142.791 23.128 C 141.49 23.128 140.37 22.8613 139.431 22.328 C 138.514 21.7947 137.799 21.0373 137.287 20.056 C 136.796 19.0747 136.551 17.912 136.551 16.568 L 136.551 6.008 L 140.231 6.008 L 140.231 15.608 Z M 148.871 6.008 L 152.551 6.008 L 152.551 23 L 148.871 23 L 148.871 6.008 Z M 169.777 13.272 C 169.735 12.312 169.511 11.5013 169.105 10.84 C 168.721 10.1573 168.177 9.63467 167.473 9.272 C 166.769 8.888 165.959 8.696 165.041 8.696 C 164.017 8.696 163.121 8.93067 162.353 9.4 C 161.607 9.86933 161.02 10.5307 160.593 11.384 C 160.167 12.216 159.953 13.1973 159.953 14.328 C 159.953 15.544 160.177 16.6 160.625 17.496 C 161.095 18.392 161.735 19.0853 162.545 19.576 C 163.377 20.0667 164.327 20.312 165.393 20.312 C 167.292 20.312 168.892 19.64 170.193 18.296 L 172.145 20.248 C 171.313 21.1653 170.3 21.88 169.105 22.392 C 167.911 22.8827 166.577 23.128 165.105 23.128 C 163.356 23.128 161.831 22.7653 160.529 22.04 C 159.228 21.3147 158.215 20.312 157.489 19.032 C 156.764 17.7307 156.401 16.2267 156.401 14.52 C 156.401 12.8133 156.764 11.32 157.489 10.04 C 158.215 8.73867 159.228 7.72533 160.529 7 C 161.831 6.27467 163.324 5.90133 165.009 5.88 C 167.015 5.88 168.625 6.296 169.841 7.128 C 171.057 7.93867 171.921 9.09067 172.433 10.584 C 172.945 12.0773 173.127 13.848 172.977 15.896 L 159.377 15.896 L 159.377 13.272 L 169.777 13.272 Z M 186.51 10.136 C 185.763 9.688 184.942 9.336 184.046 9.08 C 183.171 8.80267 182.36 8.664 181.614 8.664 C 180.888 8.664 180.291 8.80267 179.822 9.08 C 179.352 9.35733 179.118 9.816 179.118 10.456 C 179.118 10.9893 179.331 11.416 179.758 11.736 C 180.206 12.0347 180.771 12.2907 181.454 12.504 C 182.136 12.7173 182.862 12.9413 183.63 13.176 C 184.398 13.4107 185.123 13.72 185.806 14.104 C 186.51 14.4667 187.075 14.968 187.502 15.608 C 187.928 16.248 188.142 17.0907 188.142 18.136 C 188.142 19.288 187.832 20.2373 187.214 20.984 C 186.616 21.7093 185.816 22.2533 184.814 22.616 C 183.832 22.9573 182.766 23.128 181.614 23.128 C 180.376 23.128 179.139 22.9253 177.902 22.52 C 176.664 22.1147 175.619 21.528 174.766 20.76 L 176.078 18.264 C 176.824 18.9253 177.731 19.448 178.798 19.832 C 179.864 20.1947 180.856 20.376 181.774 20.376 C 182.307 20.376 182.776 20.312 183.182 20.184 C 183.608 20.0347 183.939 19.8213 184.174 19.544 C 184.43 19.2667 184.558 18.904 184.558 18.456 C 184.558 17.8587 184.344 17.3893 183.918 17.048 C 183.491 16.7067 182.936 16.4293 182.254 16.216 C 181.571 15.9813 180.846 15.7573 180.078 15.544 C 179.31 15.3093 178.584 15.0107 177.902 14.648 C 177.24 14.2853 176.696 13.7947 176.27 13.176 C 175.843 12.5573 175.63 11.736 175.63 10.712 C 175.63 9.56 175.928 8.632 176.526 7.928 C 177.123 7.20267 177.891 6.68 178.83 6.36 C 179.79 6.01867 180.814 5.848 181.902 5.848 C 182.968 5.848 184.035 5.99733 185.102 6.296 C 186.168 6.59467 187.086 7.01067 187.854 7.544 L 186.51 10.136 Z M 196.165 17.624 C 196.165 18.5413 196.325 19.1707 196.645 19.512 C 196.965 19.832 197.413 19.992 197.989 19.992 C 198.373 19.992 198.768 19.928 199.173 19.8 C 199.6 19.672 200.058 19.48 200.549 19.224 L 201.477 21.88 C 200.816 22.2853 200.133 22.6053 199.429 22.84 C 198.725 23.0533 198.01 23.16 197.285 23.16 C 196.432 23.16 195.642 23 194.917 22.68 C 194.192 22.3387 193.605 21.8053 193.157 21.08 C 192.73 20.3547 192.517 19.416 192.517 18.264 L 192.517 1.976 L 196.165 1.976 L 196.165 17.624 Z M 190.117 6.616 L 201.189 6.616 L 201.189 9.24 L 190.117 9.24 L 190.117 6.616 Z" stroke-linecap="round" />
</g>
</svg>