<svg width="522" height="534" viewBox="0 0 522 534" fill="none" xmlns="http://www.w3.org/2000/svg">
<path d="M19.0084 442.916H0.858276V530.874H19.0084V494.574H58.1009V530.874H76.251V442.916H58.1009V477.82H19.0084V442.916ZM158.624 493.178C158.624 507.14 151.644 515.517 139.078 515.517C126.513 515.517 119.532 507.14 119.532 493.178V444.312H101.382V494.574C101.382 519.705 115.343 533.667 139.078 533.667C162.813 533.667 176.775 519.705 176.775 494.574V445.709H158.624V493.178ZM328.956 442.916L309.41 502.951L289.864 442.916H271.713L301.033 530.874H316.391L335.937 473.632L355.483 530.874H370.841L401.556 442.916H383.406L363.86 502.951L344.314 442.916H328.956ZM465.78 476.424H433.668V459.67H479.741V442.916H415.518V530.874H481.138V514.12H433.668V493.178H465.78V476.424ZM503.476 442.916H521.626V530.874H503.476V442.916ZM250.771 512.724L259.148 530.874H277.298L239.602 444.312H224.244L185.151 532.271H203.302L210.282 515.517V514.12H250.771V512.724ZM231.225 465.255L243.79 494.574L245.186 495.97H218.659L220.055 494.574L231.225 465.255Z" fill="#262729"/>
<path d="M224.244 306.093C224.244 306.093 225.64 304.696 224.244 304.696C162.813 172.061 79.0434 70.1414 79.0434 70.1414C79.0434 70.1414 32.9701 113.422 37.1586 156.703C38.5547 188.815 63.6856 208.361 63.6856 208.361C102.778 247.454 199.113 294.923 221.452 306.093C222.848 306.093 222.848 307.489 224.244 306.093ZM208.886 339.6C208.886 338.204 207.49 338.204 207.49 338.204L46.9317 343.789C63.6856 374.504 93.005 398.239 123.721 391.258C144.663 385.674 192.132 353.562 207.49 342.393L208.886 339.6ZM211.679 324.243C213.075 322.846 211.679 321.45 211.679 321.45C141.871 273.981 5.04688 201.38 5.04688 201.38C-7.51857 239.077 9.23536 269.792 9.23536 269.792C25.9893 306.093 59.4972 317.262 59.4972 317.262C74.8549 322.846 90.2127 324.243 90.2127 324.243H210.283C210.283 325.639 211.679 324.243 211.679 324.243ZM222.848 1.72953C215.867 1.72953 197.717 5.91802 197.717 5.91802C155.832 17.0873 144.663 54.7836 144.663 54.7836C136.286 78.5184 144.663 105.045 144.663 105.045C158.625 167.873 228.433 269.792 243.79 292.131C245.187 293.527 245.187 292.131 245.187 292.131C246.583 292.131 246.583 290.735 246.583 290.735C268.921 61.7644 222.848 1.72953 222.848 1.72953ZM274.506 293.527C275.902 293.527 277.298 292.131 277.298 292.131C292.656 269.792 362.464 167.873 376.426 105.045C376.426 105.045 383.406 74.3299 376.426 54.7836C376.426 54.7836 366.653 15.6911 323.372 5.91802L298.241 0.333374C298.241 0.333374 250.771 61.7644 274.506 290.735V293.527ZM313.598 338.204C313.598 338.204 312.202 338.204 312.202 339.6V342.393C327.56 353.562 373.633 385.674 395.972 392.655C395.972 392.655 437.857 406.616 472.761 345.185L313.598 338.204ZM516.042 202.777C516.042 202.777 380.614 275.377 309.41 322.846C309.41 322.846 308.014 324.243 308.014 325.639C308.014 325.639 308.014 327.035 309.41 327.035H432.272C432.272 327.035 444.838 327.035 460.195 320.054C460.195 320.054 493.703 308.885 511.853 271.189C511.853 269.792 527.211 239.077 516.042 202.777ZM296.844 306.093C296.844 306.093 298.241 307.489 299.637 306.093C321.975 294.923 418.31 246.058 457.403 208.361C457.403 208.361 482.534 188.815 483.93 156.703C486.722 112.026 442.045 70.1414 442.045 70.1414C442.045 70.1414 358.276 170.665 296.844 303.3C296.844 303.3 295.448 304.696 296.844 306.093Z" fill="#CF0A2C"/>
</svg>
